<mxfile host="app.diagrams.net" modified="2023-12-01T10:28:55.807Z" agent="Mozilla/5.0 (Windows NT 10.0; Win64; x64) AppleWebKit/537.36 (KHTML, like Gecko) Chrome/119.0.0.0 Safari/537.36 Edg/119.0.0.0" version="22.1.5" etag="ey59RtEFVfnoth6SZ1jF" type="github">
  <diagram name="Page-1" id="-bRNXxp1CZ-K32reGNfl">
    <mxGraphModel>
      <root>
        <mxCell id="0" />
        <mxCell id="1" parent="0" />
      </root>
    </mxGraphModel>
  </diagram>
</mxfile>
